<svg xmlns="http://www.w3.org/2000/svg" width="21" height="20" viewBox="0 0 21 20">
  <g id="Vector_Smart_Object" data-name="Vector Smart Object" transform="translate(-1123.168 -28.08)">
    <g id="Shape_283" data-name="Shape 283">
      <path id="Контур_68" data-name="Контур 68" d="M1128.349,40.043l-4.682,4.406a1.4,1.4,0,0,0-.087,2.058l1.26,1.187a1.618,1.618,0,0,0,2.187-.082l4.7-4.424a8.306,8.306,0,0,1-1.97-1.371A7.855,7.855,0,0,1,1128.349,40.043Zm13.4-9.688a8.627,8.627,0,0,0-11.675,0,7.445,7.445,0,0,0,0,10.985,8.626,8.626,0,0,0,11.675,0A7.445,7.445,0,0,0,1141.75,30.356Z" fill="#fff"/>
    </g>
    <g id="Сгруппировать_49" data-name="Сгруппировать 49">
      <path id="Контур_69" data-name="Контур 69" d="M1139.771,32.217a5.711,5.711,0,0,0-7.719,0,4.927,4.927,0,0,0,0,7.261,5.708,5.708,0,0,0,7.718,0A4.93,4.93,0,0,0,1139.771,32.217Z" fill="#81bed7"/>
    </g>
  </g>
</svg>
